<?xml version="1.0" encoding="UTF-8"?>
<svg version="1.1" xmlns="http://www.w3.org/2000/svg" width="864" height="1296">
<path d="M0 0 C0.66902344 0.17015625 1.33804688 0.3403125 2.02734375 0.515625 C4.11809594 1.04322421 6.21078949 1.5631524 8.3046875 2.078125 C10.75363187 2.68906673 13.19666333 3.32425716 15.6328125 3.984375 C32.67266061 8.47413651 50.37344402 9.90594249 67.9375 10.5625 C90.22176071 11.39979279 108.01382667 18.28899144 125 33 C125.98097656 33.84691406 126.96195313 34.69382812 127.97265625 35.56640625 C134.73140036 41.51903211 140.46431819 47.87723152 146 55 C146.83917969 56.01191406 147.67835938 57.02382813 148.54296875 58.06640625 C156.19233569 67.34974049 162.34733026 77.39977146 168.57519531 87.67089844 C181.61440364 108.9858483 196.72004123 130.04721217 213 149 C213.7940625 149.928125 214.588125 150.85625 215.40625 151.8125 C219.99952716 157.30974732 219.99952716 157.30974732 226 161 C217.88133126 131.78911145 202.3648232 104.32188851 187.703125 77.921875 C185.94561542 74.75141696 184.24695306 71.56213594 182.609375 68.328125 C166.38821922 36.32374961 138.43450484 15.13110353 105 3 C105 2.34 105 1.68 105 1 C137.75990875 3.95412367 166.7549637 18.84587468 188.3828125 43.80078125 C203.65936327 62.12924486 211.45239239 83.76204384 218.90988159 106.10049438 C232.96620007 149.26696488 232.96620007 149.26696488 262 183 C263.65746429 183.68922736 265.32333922 184.35888312 267 185 C266.74460449 184.40461426 266.48920898 183.80922852 266.22607422 183.19580078 C263.10317313 175.36013156 261.71841011 167.49853724 260.47753906 159.21258545 C253.05206002 105.63888572 253.05206002 105.63888572 224.234375 61.80859375 C223.49703125 61.21175781 222.7596875 60.61492187 222 60 C222 59.34 222 58.68 222 58 C232.08087448 59.56346896 239.55850857 64.06768304 246 72 C257.96960343 89.33528773 264.03536519 108.12909507 267.9375 128.625 C274.68051519 163.87517856 286.53511958 203.85187906 316.9765625 226.18359375 C322.08306976 229.81514897 322.08306976 229.81514897 328 231 C327.79721436 230.46270264 327.59442871 229.92540527 327.38549805 229.37182617 C325.34730466 223.67801058 324.3236515 218.32514743 323.8125 212.3125 C323.73281982 211.44254395 323.65313965 210.57258789 323.57104492 209.67626953 C322.81400551 200.85362975 322.53792861 192.13774021 323.48828125 183.31640625 C326.29287562 156.20108955 321.70461304 130.71446451 304.46875 109.00390625 C303 107 303 107 303 105 C313.18238365 107.6108676 320.91424118 114.67935799 327 123 C331.29781355 130.54692314 334.18367685 138.5194696 336 147 C336.17708496 147.8048584 336.35416992 148.6097168 336.53662109 149.43896484 C337.19223351 154.47730134 337.0410983 159.43841473 336.95703125 164.51171875 C336.93461088 166.82095464 336.91315906 169.1302001 336.89257812 171.43945312 C336.85580479 175.04397089 336.81315761 178.64798676 336.75317383 182.25219727 C336.13707496 221.16327992 348.09736327 250.81838546 375 279 C375.70962891 279.90492188 375.70962891 279.90492188 376.43359375 280.828125 C378.9095443 282.68045708 381.16383353 282.28503763 384.1875 282.1875 C385.27417969 282.16042969 386.36085938 282.13335938 387.48046875 282.10546875 C388.31191406 282.07066406 389.14335938 282.03585937 390 282 C389.93071289 281.34588135 389.86142578 280.6917627 389.79003906 280.01782227 C387.84642318 260.44159857 389.06866528 241.26984585 391.63256836 221.81787109 C394.23409381 201.86650445 387.74282776 186.01294694 376 170 C379.64352853 168.78549049 380.31743594 169.25609953 383.6875 170.875 C394.34906862 176.53215886 399.36319091 185.85566226 402.96875 196.9921875 C406.05170182 208.43907342 405.31987826 219.91762072 404.5 231.625 C403.35152691 248.41933839 402.89030686 265.56122746 407 282 C426.8 282.495 426.8 282.495 447 283 C447.33 281.35 447.66 279.7 448 278 C454.279688 262.34563491 464.66433533 251.31982551 480.08984375 244.62890625 C482 244 482 244 485 244 C485 244.66 485 245.32 485 246 C483.42578125 247.2265625 483.42578125 247.2265625 481.3125 248.625 C474.17078707 253.83617922 471.25173918 260.63639734 469 269 C468.34 273.62 467.68 278.24 467 283 C490.43 283 513.86 283 538 283 C538.66 281.35 539.32 279.7 540 278 C542.1875 275.625 542.1875 275.625 545 274 C548.5 273.9375 548.5 273.9375 552 275 C553.66666667 276.66666667 555.33333333 278.33333333 557 280 C558.010625 280 559.02125 280 560.0625 280 C561.031875 280 562.00125 280 563 280 C565.16607525 282.22461782 566.61688761 284.23377522 568 287 C570.00348262 287.19706386 572.00710014 287.39297373 574.01171875 287.578125 C576.82694944 288.17546275 578.00701298 290.00701298 580 292 C585.10874341 291.7577751 588.24621113 289.82765221 592.375 286.9375 C593.43460938 286.20402344 594.49421875 285.47054688 595.5859375 284.71484375 C596.38257813 284.14894531 597.17921875 283.58304688 598 283 C601.04332765 284.3584202 603.12309151 285.88463024 605.453125 288.2578125 C606.38125 289.19560547 606.38125 289.19560547 607.328125 290.15234375 C607.96234375 290.80332031 608.5965625 291.45429687 609.25 292.125 C610.22453125 293.11306641 610.22453125 293.11306641 611.21875 294.12109375 C612.81711727 295.74296643 614.41061897 297.3693281 616 299 C614.50387954 304.34914301 610.94898255 307.56659376 607.125 311.375 C606.49980469 312.02855469 605.87460937 312.68210937 605.23046875 313.35546875 C604.62074219 313.96777344 604.01101563 314.58007812 603.3828125 315.2109375 C602.82996582 315.77087402 602.27711914 316.33081055 601.70751953 316.90771484 C600 318 600 318 597.9387207 317.77392578 C594.39910543 316.3609324 591.55803085 313.87375434 588.53515625 311.59375 C585.94096879 309.96288947 584.01418869 309.38823182 581 309 C580.2884375 310.2375 580.2884375 310.2375 579.5625 311.5 C577 314 577 314 574.8359375 314.15625 C574.04445313 314.1046875 573.25296875 314.053125 572.4375 314 C570.09318505 313.80137796 570.09318505 313.80137796 568 314 C566.39092892 316.37612865 566.39092892 316.37612865 565 319 C563.1953125 319.56640625 563.1953125 319.56640625 561.0625 319.9375 C557.36847612 320.6288586 557.13104926 320.83101542 554.625 324.0625 C554.08875 325.031875 553.5525 326.00125 553 327 C549.86128812 328.56935594 547.46144178 328.35201103 544 328 C543.24112214 327.17995493 542.48224429 326.35990986 541.70037013 325.51501495 C538.28975987 322.33851122 536.70581467 322.37759917 532.10657787 322.38476086 C531.42208243 322.37899164 530.73758699 322.37322241 530.03234926 322.36727837 C527.73337298 322.35401884 525.43613973 322.37648956 523.13725281 322.39872742 C521.47476361 322.39654738 519.81227609 322.3921701 518.14979774 322.38578159 C513.57744235 322.37458524 509.00567098 322.39462311 504.43339002 322.41967189 C499.50432487 322.44123477 494.57529349 322.43395942 489.64619446 322.43016052 C481.10491297 322.42753689 472.56382224 322.44324385 464.02258873 322.47134972 C451.67338365 322.51195971 439.32427094 322.52500438 426.97500632 322.53128967 C406.93990958 322.54223678 386.90491455 322.57552229 366.86987305 322.62280273 C347.40601104 322.66868754 327.94217665 322.70408474 308.47827148 322.7253418 C307.27881288 322.72665541 306.07935427 322.72796903 304.84354844 322.72932246 C298.82630514 322.73584757 292.80906165 322.74216613 286.79181802 322.74838197 C236.86114172 322.80022794 186.93057582 322.88830458 137 323 C138.03395905 323.40715744 139.06791809 323.81431488 140.13320923 324.23381042 C141.50112912 324.77578115 142.86899536 325.31788728 144.23681641 325.86010742 C144.91696304 326.12752495 145.59710968 326.39494247 146.29786682 326.67046356 C157.63613447 331.1752523 166.86288499 337.89418083 175 347 C175.45471176 346.18801651 175.90942352 345.37603302 176.37791443 344.53944397 C180.27981501 340.76052157 183.70822252 341.30457047 188.95336914 341.36889648 C189.96350571 341.36174118 190.97364227 341.35458588 192.01438904 341.34721375 C195.35510403 341.33029745 198.69448279 341.34974611 202.03515625 341.37109375 C204.35395926 341.37026539 206.67276222 341.36780727 208.99156189 341.36378479 C213.85140658 341.36092485 218.71079089 341.37564898 223.57055664 341.40307617 C229.8076674 341.43717766 236.04395574 341.43113596 242.281106 341.4124136 C247.06887193 341.40185867 251.85644561 341.41076749 256.64419365 341.42579842 C258.94435493 341.43099046 261.2445362 341.4304861 263.5446949 341.42425346 C266.75557964 341.41881889 269.96527596 341.4391203 273.17602539 341.46655273 C274.13143219 341.46002686 275.08683899 341.45350098 276.07119751 341.44677734 C282.49130994 341.54030952 282.49130994 341.54030952 285.08973694 343.88844299 C286.15259005 346.35396645 286.38753832 348.15943707 286.3984375 350.84375 C286.40230469 351.76027344 286.40617187 352.67679688 286.41015625 353.62109375 C286.39275391 355.04615234 286.39275391 355.04615234 286.375 356.5 C286.39240234 357.92505859 286.39240234 357.92505859 286.41015625 359.37890625 C286.40628906 360.29542969 286.40242188 361.21195313 286.3984375 362.15625 C286.39505371 362.98962891 286.39166992 363.82300781 286.38818359 364.68164062 C285.89373293 367.63466171 285.19619574 368.95489603 283 371 C280.27270508 371.45410156 280.27270508 371.45410156 277.01953125 371.390625 C275.27446289 371.37128906 275.27446289 371.37128906 273.49414062 371.3515625 C271.67172852 371.30128906 271.67172852 371.30128906 269.8125 371.25 C268.58595703 371.23195313 267.35941406 371.21390625 266.09570312 371.1953125 C263.06298347 371.14811064 260.03201235 371.07887694 257 371 C256.95344017 371.73674422 256.90688034 372.47348845 256.85890961 373.23255825 C256.20358118 382.67126453 255.04133394 392.0121436 253.79101562 401.38500977 C253.56559721 403.09466222 253.34048283 404.80435478 253.11564636 406.51408386 C252.50939404 411.11717428 251.89876387 415.71967385 251.2871685 420.32205701 C250.64608331 425.15116689 250.00866753 429.98076129 249.37072754 434.81028748 C248.30054431 442.9077862 247.22756528 451.00491063 246.15283203 459.10180664 C244.9104159 468.46221967 243.67215788 477.82317555 242.43616152 487.18443829 C241.24500004 496.20558935 240.0512149 505.22639122 238.85612488 514.24702263 C238.34816598 518.08135463 237.84107517 521.91579996 237.33467102 525.7503376 C236.73927043 530.25768819 236.14155881 534.76472644 235.5420475 539.27153206 C235.32235404 540.92585258 235.10344799 542.58027789 234.8853817 544.23481369 C234.58795979 546.49041552 234.28769604 548.74562119 233.98669434 551.00074768 C233.81930504 552.2633117 233.65191574 553.52587572 233.47945404 554.82669926 C233 558 233 558 232 562 C224.08 562 216.16 562 208 562 C212.71380349 519.0630891 217.56211107 476.14237459 222.49457169 433.23002243 C222.93809757 429.36979908 223.38102967 425.50950799 223.82382202 421.64920044 C224.52812107 415.51032198 225.234117 409.37164098 225.94147491 403.23311424 C226.20493624 400.94505617 226.46790919 398.6569418 226.73036957 396.36876869 C227.09213943 393.21621553 227.45584373 390.06389146 227.82006836 386.91162109 C227.97818638 385.52848268 227.97818638 385.52848268 228.13949871 384.11740208 C228.23868005 383.26255191 228.33786139 382.40770174 228.44004822 381.52694702 C228.52460235 380.79269186 228.60915648 380.0584367 228.69627285 379.30193138 C229.06270319 376.52477599 229.5394814 373.76311163 230 371 C216.14 371 202.28 371 188 371 C188.33 371.66 188.66 372.32 189 373 C191.07540792 401.03058516 185.06367129 425.71043432 166.75 447.25 C160.27431138 454.14752044 152.31894358 460.47693802 144 465 C143.34 465 142.68 465 142 465 C142.37769531 465.41507813 142.75539063 465.83015625 143.14453125 466.2578125 C160.26558401 485.42376851 175.24195185 506.91879285 184.5 531 C184.82629395 531.84771973 185.15258789 532.69543945 185.48876953 533.56884766 C188.72475358 542.3640422 190.30202286 550.63729135 190 560 C189.28199219 560.24492188 188.56398438 560.48984375 187.82421875 560.7421875 C180.70951055 563.3116338 174.10519603 566.38161605 167.4375 569.9375 C166.62128174 570.37231689 165.80506348 570.80713379 164.96411133 571.25512695 C162.01194686 572.83461951 159.06290486 574.41942869 156.12451172 576.02441406 C143.5888382 582.85152358 143.5888382 582.85152358 137 582 C134.40114739 580.24577449 133.35041896 579.10423724 132.40576172 576.12744141 C131.97873391 573.88850018 131.93339752 571.9247475 132.0078125 569.6484375 C132.68732653 539.67527413 124.06009244 513.59749028 107 489 C106.60425781 488.19175781 106.20851562 487.38351562 105.80078125 486.55078125 C104.16534245 484.78842309 104.16534245 484.78842309 102.17564392 485.06016541 C101.44342117 485.16913651 100.71119843 485.2781076 99.95678711 485.39038086 C95.24671866 486.00320633 90.63637743 486.17647615 85.890625 486.203125 C85.04992462 486.21018463 84.20922424 486.21724426 83.3430481 486.22451782 C48.23539456 486.45246068 48.23539456 486.45246068 33 483 C32.05012207 482.79068848 31.10024414 482.58137695 30.12158203 482.36572266 C18.88212028 479.8275479 7.81900808 477.24702918 -2 471 C-2.825 470.47792969 -3.65 469.95585938 -4.5 469.41796875 C-11.13228397 464.76009827 -15.43525057 458.69424829 -18 451 C-18.94259989 441.85214532 -17.44990811 433.86219229 -12.08203125 426.296875 C-1.30895847 413.55986151 13.84392868 407.98770407 30.0625 406.25 C60.933086 404.30935781 89.35387851 421.3918277 112.4609375 440.19921875 C114.88903611 442.28925234 114.88903611 442.28925234 118 442 C128.72778224 435.32547485 136.76526316 421.5926459 139.57421875 409.53515625 C141.40951334 398.60757652 139.14242276 388.61991816 133.25 379.25 C132.19873425 377.80937657 131.11504326 376.39184557 130 375 C129.45988281 374.32324219 128.91976562 373.64648438 128.36328125 372.94921875 C117.03787713 360.29719462 98.589881 354.78126423 82.16015625 353.76171875 C63.16278577 353.24627726 46.04579597 358.44826205 31.2421875 370.80078125 C28.05642729 373.9254903 25.4916982 377.41042565 22.984375 381.09375 C21 383 21 383 18.0390625 383.41015625 C15.03793871 383.00512026 13.22508137 382.44052102 10.625 380.9375 C9.93664062 380.55464844 9.24828125 380.17179687 8.5390625 379.77734375 C6 378 6 378 4.36157227 376.28295898 C-0.56236466 371.26827591 -4.10695671 370.21750261 -11.08789062 370.12695312 C-12.15201172 370.14693359 -13.21613281 370.16691406 -14.3125 370.1875 C-16.4544366 370.1887742 -18.59639433 370.18261186 -20.73828125 370.16796875 C-21.67712158 370.18110107 -22.61596191 370.1942334 -23.58325195 370.20776367 C-26 370 -26 370 -29 368 C-29.66530831 364.22804358 -29.4629138 360.38612153 -29.4375 356.5625 C-29.45748047 355.49966797 -29.47746094 354.43683594 -29.49804688 353.34179688 C-29.49708008 351.81329102 -29.49708008 351.81329102 -29.49609375 350.25390625 C-29.49794678 349.31877197 -29.4997998 348.3836377 -29.50170898 347.42016602 C-29 345 -29 345 -27.55981445 343.18383789 C-23.60370445 341.35425492 -19.84766613 341.69932215 -15.546875 341.8046875 C-13.6276098 341.81166883 -11.70833721 341.81681477 -9.7890625 341.8203125 C-6.78712049 341.84076037 -3.78740955 341.87416183 -0.78613281 341.94140625 C12.82295971 342.21313522 21.88706004 340.81825148 33.19499207 333.10293579 C40.25438204 328.78935151 48.82539635 326.56249224 56.75073242 324.41943359 C57.73547043 324.15262787 58.72020844 323.88582214 59.73478699 323.6109314 C60.85606743 323.30852036 60.85606743 323.30852036 62 323 C51.76888398 322.88418378 41.53792372 322.79532414 31.30628586 322.74093914 C26.5553549 322.71483774 21.80487218 322.67943003 17.05419922 322.62280273 C12.47005047 322.56850193 7.88633303 322.53858356 3.30188751 322.52561378 C1.55232197 322.51637038 -0.19721979 322.49831992 -1.94660187 322.47134972 C-4.39623639 322.43508347 -6.84408582 322.43005339 -9.29394531 322.43237305 C-10.01827255 322.41439667 -10.74259979 322.39642029 -11.48887634 322.37789917 C-13.77485673 322.34713241 -13.77485673 322.34713241 -17 323 C-19.26107714 325.41168272 -19.26107714 325.41168272 -21 328 C-25.95266272 328.95857988 -25.95266272 328.95857988 -29 328 C-30.75018093 326.35627776 -32.07666291 324.60570448 -33.49609375 322.671875 C-35.81272798 320.0964998 -38.72345842 319.84947374 -42 319 C-42.639375 318.13375 -43.27875 317.2675 -43.9375 316.375 C-44.618125 315.59125 -45.29875 314.8075 -46 314 C-47.98766166 314 -49.97882883 314.00777744 -51.9609375 314.15625 C-55.64089722 313.87426075 -57.47161394 311.52838606 -60 309 C-66.76530289 312.15201393 -66.76530289 312.15201393 -72.875 316.375 C-75 318 -75 318 -76.91918945 317.7902832 C-79.33083138 316.87435162 -80.59246268 315.79492868 -82.41796875 313.98046875 C-83.03220703 313.37009766 -83.64644531 312.75972656 -84.27929688 312.13085938 C-85.22385742 311.16889648 -85.22385742 311.16889648 -86.1875 310.1875 C-87.14946289 309.24293945 -87.14946289 309.24293945 -88.13085938 308.27929688 C-88.74123047 307.66505859 -89.35160156 307.05082031 -89.98046875 306.41796875 C-90.81421021 305.57915161 -90.81421021 305.57915161 -91.66479492 304.72338867 C-93.21841193 302.71808926 -93.87627878 301.54577843 -94 299 C-92.64477539 297.07714844 -92.64477539 297.07714844 -90.59765625 295.109375 C-89.87255859 294.40039062 -89.14746094 293.69140625 -88.40039062 292.9609375 C-87.24313477 291.86652344 -87.24313477 291.86652344 -86.0625 290.75 C-85.29486328 290.00492188 -84.52722656 289.25984375 -83.73632812 288.4921875 C-81.83489246 286.64980263 -79.92279952 284.8200352 -78 283 C-74.49322181 284.35264036 -71.62575183 285.81586322 -68.5625 288 C-65.13972334 290.34671978 -62.06101552 291.95871397 -58 293 C-57.71125 292.360625 -57.4225 291.72125 -57.125 291.0625 C-56 289 -56 289 -54 288 C-51.3276379 287.86584528 -48.67749512 287.95681459 -46 288 C-45.71125 287.05125 -45.4225 286.1025 -45.125 285.125 C-44 282 -44 282 -42 280 C-40.948125 280.0825 -39.89625 280.165 -38.8125 280.25 C-34.63991151 279.97638764 -34.29351617 279.68056893 -31.5 276.9375 C-28.78425926 274.38007598 -28.31069699 274.02678422 -24.375 273.6875 C-21 275 -21 275 -19.18794727 278.52704716 C-17.32824721 281.21816106 -16.39683771 281.90827375 -13.16469419 282.65536106 C-9.30731675 282.90318678 -5.47977314 282.92697255 -1.61784363 282.87974548 C-0.11620859 282.88692871 1.38541438 282.89718239 2.8870098 282.91024405 C7.01487284 282.93725206 11.14159193 282.92064348 15.26943338 282.89700234 C19.72003581 282.87912198 24.1704546 282.90156071 28.62103271 282.91912842 C36.33238776 282.94403694 44.04340072 282.94334125 51.75477028 282.92530632 C62.90407299 282.89926787 74.05306982 282.9117644 85.20236918 282.93369765 C103.29079374 282.96823384 121.37908431 282.97156038 139.4675293 282.95532227 C157.03982878 282.9396142 174.61202816 282.93856605 192.18432617 282.95727539 C193.26729195 282.95842332 194.35025773 282.95957125 195.46604065 282.96075397 C200.89890563 282.96660332 206.33177023 282.97274132 211.76463473 282.97902286 C256.84311891 283.03076954 301.92150263 283.03189229 347 283 C345.83114258 281.57506226 345.83114258 281.57506226 344.63867188 280.12133789 C344.20035034 279.58698624 343.76202881 279.05263458 343.3104248 278.50209045 C335.19382829 269.19834246 321.01791674 264.20841312 309 263 C297.26139392 262.22300469 287.22729429 263.67163604 276 267 C247.53502347 275.20531959 211.97504685 283.80312664 183.515625 270.87109375 C183.01546875 270.58363281 182.5153125 270.29617188 182 270 C182 269.34 182 268.68 182 268 C182.9115686 267.90295776 182.9115686 267.90295776 183.84155273 267.80395508 C202.50230853 265.75631634 218.12423874 261.84662816 235.24755859 254.24560547 C243.03082264 250.84715758 250.6543693 248.59520214 259 247 C260.16402344 246.77570313 260.16402344 246.77570313 261.3515625 246.546875 C263.58255123 246.21954847 265.74529532 246.0824892 268 246 C269.27875 245.9484375 270.5575 245.896875 271.875 245.84375 C288.75084098 245.3917018 306.69364579 247.34682289 322 255 C307.88162414 236.75547908 285.30196643 226.38139277 262.8046875 223.390625 C244.86248261 221.54850951 228.33179336 224.63340529 212 232 C182.54630781 244.97438216 143.82370698 261.4905999 111.4609375 250.16796875 C109.00411473 249.00195286 107.02707383 247.81294631 105 246 C105 245.34 105 244.68 105 244 C106.24652344 244.04640625 107.49304688 244.0928125 108.77734375 244.140625 C134.14578885 244.79759175 153.93554323 235.97766005 175.83935547 223.99365234 C198.72308872 211.56558299 224.00705282 209.13441284 249.625 208.4375 C251.12110312 208.39420285 252.61719701 208.35058544 254.11328125 208.30664062 C257.74208861 208.20073818 261.37100135 208.0991582 265 208 C258.88198601 203.15909824 258.88198601 203.15909824 251.9375 199.6875 C251.16277344 199.38199219 250.38804687 199.07648438 249.58984375 198.76171875 C206.77717734 186.16975804 155.05058863 209.64614448 115.8984375 224.73046875 C104.07541095 229.27290315 92.37423723 233.246778 80 236 C78.96101562 236.24492188 77.92203125 236.48984375 76.8515625 236.7421875 C56.34416385 240.75569984 29.63736725 240.26775203 11.66796875 228.46875 C11.11753906 227.9840625 10.56710938 227.499375 10 227 C10 226.34 10 225.68 10 225 C10.95531616 224.97812622 10.95531616 224.97812622 11.92993164 224.95581055 C41.82811802 224.19919902 69.84677804 220.36698184 97.58740234 208.93359375 C138.4240408 192.12311638 179.34425041 178.78262671 224 180 C212.56596743 170.6644487 199.97144973 166.57308389 185.29492188 167.76513672 C154.06128731 170.96160017 123.78191902 182.11181798 94.46777344 192.83789062 C62.14363065 204.62301378 16.80449564 220.37502558 -17 206 C-20.03640005 204.52917323 -22.31598299 203.09353327 -25 201 C-25.33 200.01 -25.66 199.02 -26 198 C-25.15630859 198.01571045 -24.31261719 198.0314209 -23.44335938 198.04760742 C11.44383725 198.60839592 46.66207947 195.22232869 79 181 C79 180.34 79 179.68 79 179 C62.21806912 169.88859814 43.99920154 176.19050693 26.5456543 180.19775391 C13.85424611 183.05820293 1.51006605 184.34479907 -11.5 184.3125 C-12.79808594 184.32861328 -14.09617187 184.34472656 -15.43359375 184.36132812 C-30.49565267 184.36885163 -46.11195787 181.86454559 -58 172 C-58.33 171.01 -58.66 170.02 -59 169 C-57.20824107 169.14469531 -55.41659858 169.29083261 -53.625 169.4375 C-52.12839844 169.55931641 -52.12839844 169.55931641 -50.6015625 169.68359375 C-48.68286332 169.85215626 -46.76430999 170.02736596 -44.85107422 170.24951172 C-20.30116099 173.03207003 4.64160121 170.95012316 28.6875 165.625 C29.55511963 165.44042236 30.42273926 165.25584473 31.31665039 165.06567383 C36.65909979 163.77847159 39.49636793 162.2671527 43 158 C42.20882096 156.00016466 42.20882096 156.00016466 41 154 C31.61379786 150.87126595 20.60044547 153.07177631 11.125 154.875 C-25.68830791 161.79207203 -67.62539261 162.40971359 -100 141 C-102.88671875 138.8828125 -102.88671875 138.8828125 -105 137 C-105 136.34 -105 135.68 -105 135 C-99.13125435 136.06461157 -93.26382943 137.13580296 -87.3984375 138.21875 C-85.05733544 138.64607322 -82.716189 139.07315339 -80.375 139.5 C-79.23160156 139.71269531 -78.08820313 139.92539062 -76.91015625 140.14453125 C-61.75194311 142.89290582 -46.96764232 144.35541067 -31.56152344 144.31567383 C-29.0015236 144.31250189 -26.44267198 144.33614036 -23.8828125 144.36132812 C-8.58622721 144.42011776 5.61090191 142.46175785 20 137 C20 134.03 20 131.06 20 128 C1.29962225 122.49555241 -13.08209598 124.06975913 -31.9375 128.58984375 C-51.28202435 133.17370892 -72.99004991 133.19529839 -90.52734375 122.7734375 C-96.42789548 118.54144621 -101.63583841 113.48652406 -105 107 C-105 106.01 -105 105.02 -105 104 C-101.05737829 105.54598112 -97.18834606 107.23178051 -93.3125 108.9375 C-90.88119106 109.97431224 -88.44235442 110.98909172 -86 112 C-84.74316406 112.52400391 -84.74316406 112.52400391 -83.4609375 113.05859375 C-69.6412878 118.02132019 -55.6686355 114.63493023 -42.13623047 110.62841797 C-21.38625544 104.52436817 -1.20377947 106.36817183 20 108 C19.67 104.7 19.34 101.4 19 98 C12.30720872 95.43839359 6.70714463 94.4861603 -0.4375 94.5625 C-1.4167041 94.56717285 -2.3959082 94.5718457 -3.40478516 94.57666016 C-17.79645102 94.85555962 -32.11100288 97.38354618 -46.11865234 100.58935547 C-50.04779859 101.44697602 -53.99362822 101.74504907 -58 102 C-58.83015625 102.05414063 -59.6603125 102.10828125 -60.515625 102.1640625 C-75.85398713 102.66921814 -90.73854719 98.72979198 -102.9375 89.1875 C-109.86206043 82.59434171 -114.77292741 73.93765265 -118 65 C-118 64.01 -118 63.02 -118 62 C-115 63 -115 63 -112.8125 65.25 C-97.46089223 80.26046093 -71.06778022 83.09314431 -50.5234375 83.203125 C-49.20372955 83.21364647 -49.20372955 83.21364647 -47.85736084 83.22438049 C-45.02985467 83.24180367 -42.2025579 83.24823371 -39.375 83.25 C-37.92670807 83.25101212 -37.92670807 83.25101212 -36.44915771 83.25204468 C-22.11335263 83.23611104 -8.09226267 82.88257002 6 80 C6.94536621 79.80712402 7.89073242 79.61424805 8.86474609 79.41552734 C21.3480107 76.92428129 21.3480107 76.92428129 33 72 C15.43011109 65.33555938 -3.05583276 66.39794093 -21.4375 68 C-75.56869745 72.70062926 -75.56869745 72.70062926 -94 58 C-97 55.375 -97 55.375 -99 53 C-99 52.01 -99 51.02 -99 50 C-98.46375 50.28875 -97.9275 50.5775 -97.375 50.875 C-81.86354362 58.22253197 -63.77245893 54.13046521 -47.55957031 51.47583008 C-23.39332047 47.54498168 0.56814721 45.65597437 24 54 C40.43789164 59.81427608 57.50511732 62.89124874 75 62 C69.94503675 52.76919755 61.09242136 48.97859434 51.30078125 46.09765625 C36.76530369 42.20068227 21.93281439 41.72425829 6.96801758 41.33618164 C-12.28748378 40.82399538 -34.4523992 40.22124828 -51 29 C-51.495 27.515 -51.495 27.515 -52 26 C-42.31084061 25.64766693 -32.51051365 26.80401948 -22.98046875 28.5546875 C-19.31053681 29.10301285 -15.70171154 29.19032235 -12 29.1875 C-10.80056763 29.18955444 -10.80056763 29.18955444 -9.5769043 29.19165039 C-1.62972878 29.13184167 6.26496348 28.52549884 14.1875 27.9375 C37.24581751 26.28732464 61.78554159 26.92385431 80.375 42.375 C81.94762772 43.63383117 83.52325666 44.88892035 85.1015625 46.140625 C85.90754883 46.78064453 86.71353516 47.42066406 87.54394531 48.08007812 C101.6546125 59.11052413 117.85753924 71.28584641 135 77 C129.66880634 57.87042276 114.79551575 43.6279138 97.95751953 33.94238281 C84.35234352 26.62683653 68.56953678 22.58193841 53.28393555 21.01245117 C12.08845944 16.77478376 12.08845944 16.77478376 0 2 C0 1.34 0 0.68 0 0 Z " fill="#102A83" transform="translate(147,323)"/>
<path d="M0 0 C3.18068681 2.85224632 6.15384677 5.81501901 9 9 C9.45471176 8.18801651 9.90942352 7.37603302 10.37791443 6.53944397 C14.27981501 2.76052157 17.70822252 3.30457047 22.95336914 3.36889648 C23.96350571 3.36174118 24.97364227 3.35458588 26.01438904 3.34721375 C29.35510403 3.33029745 32.69448279 3.34974611 36.03515625 3.37109375 C38.35395926 3.37026539 40.67276222 3.36780727 42.99156189 3.36378479 C47.85140658 3.36092485 52.71079089 3.37564898 57.57055664 3.40307617 C63.8076674 3.43717766 70.04395574 3.43113596 76.281106 3.4124136 C81.06887193 3.40185867 85.85644561 3.41076749 90.64419365 3.42579842 C92.94435493 3.43099046 95.2445362 3.4304861 97.5446949 3.42425346 C100.75557964 3.41881889 103.96527596 3.4391203 107.17602539 3.46655273 C108.13143219 3.46002686 109.08683899 3.45350098 110.07119751 3.44677734 C116.49130994 3.54030952 116.49130994 3.54030952 119.08973694 5.88844299 C120.15259005 8.35396645 120.38753832 10.15943707 120.3984375 12.84375 C120.40230469 13.76027344 120.40617187 14.67679688 120.41015625 15.62109375 C120.39275391 17.04615234 120.39275391 17.04615234 120.375 18.5 C120.38660156 19.45003906 120.39820313 20.40007813 120.41015625 21.37890625 C120.40628906 22.29542969 120.40242188 23.21195313 120.3984375 24.15625 C120.39505371 24.98962891 120.39166992 25.82300781 120.38818359 26.68164062 C119.89373293 29.63466171 119.19619574 30.95489603 117 33 C114.27270508 33.45410156 114.27270508 33.45410156 111.01953125 33.390625 C109.85615234 33.37773438 108.69277344 33.36484375 107.49414062 33.3515625 C106.27919922 33.31804688 105.06425781 33.28453125 103.8125 33.25 C102.58595703 33.23195313 101.35941406 33.21390625 100.09570312 33.1953125 C97.06298347 33.14811064 94.03201235 33.07887694 91 33 C90.95344017 33.73674422 90.90688034 34.47348845 90.85890961 35.23255825 C90.20358118 44.67126453 89.04133394 54.0121436 87.79101562 63.38500977 C87.56559721 65.09466222 87.34048283 66.80435478 87.11564636 68.51408386 C86.50939404 73.11717428 85.89876387 77.71967385 85.2871685 82.32205701 C84.64608331 87.15116689 84.00866753 91.98076129 83.37072754 96.81028748 C82.30054431 104.9077862 81.22756528 113.00491063 80.15283203 121.10180664 C78.9104159 130.46221967 77.67215788 139.82317555 76.43616152 149.18443829 C75.24500004 158.20558935 74.0512149 167.22639122 72.85612488 176.24702263 C72.34816598 180.08135463 71.84107517 183.91579996 71.33467102 187.7503376 C70.73927043 192.25768819 70.14155881 196.76472644 69.5420475 201.27153206 C69.32235404 202.92585258 69.10344799 204.58027789 68.8853817 206.23481369 C68.58795979 208.49041552 68.28769604 210.74562119 67.98669434 213.00074768 C67.81930504 214.2633117 67.65191574 215.52587572 67.47945404 216.82669926 C67 220 67 220 66 224 C58.08 224 50.16 224 42 224 C46.71380349 181.0630891 51.56211107 138.14237459 56.49457169 95.23002243 C56.93809757 91.36979908 57.38102967 87.50950799 57.82382202 83.64920044 C58.52812107 77.51032198 59.234117 71.37164098 59.94147491 65.23311424 C60.20493624 62.94505617 60.46790919 60.6569418 60.73036957 58.36876869 C61.09213943 55.21621553 61.45584373 52.06389146 61.82006836 48.91162109 C61.92548038 47.98952882 62.03089239 47.06743654 62.13949871 46.11740208 C62.23868005 45.26255191 62.33786139 44.40770174 62.44004822 43.52694702 C62.56687941 42.42556428 62.56687941 42.42556428 62.69627285 41.30193138 C63.06270319 38.52477599 63.5394814 35.76311163 64 33 C50.14 33 36.28 33 22 33 C22.33 33.66 22.66 34.32 23 35 C25.07540792 63.03058516 19.06367129 87.71043432 0.75 109.25 C-5.72568862 116.14752044 -13.68105642 122.47693802 -22 127 C-22.66 127 -23.32 127 -24 127 C-23.62230469 127.41507813 -23.24460937 127.83015625 -22.85546875 128.2578125 C-5.73441599 147.42376851 9.24195185 168.91879285 18.5 193 C18.98944092 194.27157959 18.98944092 194.27157959 19.48876953 195.56884766 C22.72475358 204.3640422 24.30202286 212.63729135 24 222 C23.28199219 222.24492188 22.56398438 222.48984375 21.82421875 222.7421875 C14.70951055 225.3116338 8.10519603 228.38161605 1.4375 231.9375 C0.62128174 232.37231689 -0.19493652 232.80713379 -1.03588867 233.25512695 C-3.98805314 234.83461951 -6.93709514 236.41942869 -9.87548828 238.02441406 C-22.4111618 244.85152358 -22.4111618 244.85152358 -29 244 C-31.59885261 242.24577449 -32.64958104 241.10423724 -33.59423828 238.12744141 C-34.02126609 235.88850018 -34.06660248 233.9247475 -33.9921875 231.6484375 C-33.31267347 201.67527413 -41.93990756 175.59749028 -59 151 C-59.39574219 150.19175781 -59.79148438 149.38351562 -60.19921875 148.55078125 C-61.83465755 146.78842309 -61.83465755 146.78842309 -63.82435608 147.06016541 C-64.55657883 147.16913651 -65.28880157 147.2781076 -66.04321289 147.39038086 C-70.75328134 148.00320633 -75.36362257 148.17647615 -80.109375 148.203125 C-81.37042557 148.21371445 -81.37042557 148.21371445 -82.6569519 148.22451782 C-117.76460544 148.45246068 -117.76460544 148.45246068 -133 145 C-133.94987793 144.79068848 -134.89975586 144.58137695 -135.87841797 144.36572266 C-147.11787972 141.8275479 -158.18099192 139.24702918 -168 133 C-169.2375 132.21689453 -169.2375 132.21689453 -170.5 131.41796875 C-177.13228397 126.76009827 -181.43525057 120.69424829 -184 113 C-184.94259989 103.85214532 -183.44990811 95.86219229 -178.08203125 88.296875 C-167.30895847 75.55986151 -152.15607132 69.98770407 -135.9375 68.25 C-105.066914 66.30935781 -76.64612149 83.3918277 -53.5390625 102.19921875 C-51.11096389 104.28925234 -51.11096389 104.28925234 -48 104 C-37.27221776 97.32547485 -29.23473684 83.5926459 -26.42578125 71.53515625 C-24.59048666 60.60757652 -26.85757724 50.61991816 -32.75 41.25 C-33.80126575 39.80937657 -34.88495674 38.39184557 -36 37 C-36.54011719 36.32324219 -37.08023438 35.64648438 -37.63671875 34.94921875 C-48.96212287 22.29719462 -67.410119 16.78126423 -83.83984375 15.76171875 C-102.83721423 15.24627726 -119.95420403 20.44826205 -134.7578125 32.80078125 C-137.94357271 35.9254903 -140.5083018 39.41042565 -143.015625 43.09375 C-145 45 -145 45 -147.9609375 45.41015625 C-150.96206129 45.00512026 -152.77491863 44.44052102 -155.375 42.9375 C-156.06335938 42.55464844 -156.75171875 42.17179688 -157.4609375 41.77734375 C-160 40 -160 40 -161.63842773 38.28295898 C-166.56236466 33.26827591 -170.10695671 32.21750261 -177.08789062 32.12695312 C-178.15201172 32.14693359 -179.21613281 32.16691406 -180.3125 32.1875 C-182.4544366 32.1887742 -184.59639433 32.18261186 -186.73828125 32.16796875 C-187.67712158 32.18110107 -188.61596191 32.1942334 -189.58325195 32.20776367 C-192 32 -192 32 -195 30 C-195.66530831 26.22804358 -195.4629138 22.38612153 -195.4375 18.5625 C-195.45748047 17.49966797 -195.47746094 16.43683594 -195.49804688 15.34179688 C-195.49708008 13.81329102 -195.49708008 13.81329102 -195.49609375 12.25390625 C-195.49794678 11.31877197 -195.4997998 10.3836377 -195.50170898 9.42016602 C-195 7 -195 7 -193.55981445 5.18383789 C-189.60370445 3.35425492 -185.84766613 3.69932215 -181.546875 3.8046875 C-179.6276098 3.81166883 -177.70833721 3.81681477 -175.7890625 3.8203125 C-172.78712049 3.84076037 -169.78740955 3.87416183 -166.78613281 3.94140625 C-153.17869982 4.21310208 -144.08428433 2.82277525 -132.77786255 -4.90252686 C-96.10678094 -27.53955651 -34.00052499 -25.50039375 0 0 Z " fill="#E20016" transform="translate(313,661)"/>
<path d="M0 0 C0.33 21.12 0.66 42.24 1 64 C3.97 61.36 6.94 58.72 10 56 C13.36328125 53.94140625 13.36328125 53.94140625 16.3125 52.5625 C17.29863281 52.08941406 18.28476562 51.61632812 19.30078125 51.12890625 C27.64811561 47.63776351 36.22799852 48.03415733 44.6875 51.0625 C56.75212498 56.18563621 64.6272611 64.21630732 69.921875 76.05859375 C77.22574026 95.98544354 73.42179301 118.25773382 64.90429688 137.13818359 C58.78331171 150.02963735 50.92911322 159.73961612 40.56787109 169.51342773 C37.75659465 172.17893105 35.01947378 174.91467504 32.3671875 177.73828125 C27.45882861 182.91647139 21.84121942 186.93332825 16 191 C15.01 190.01 14.02 189.02 13 188 C14.14971219 186.10334722 15.30106406 184.2077178 16.4543457 182.31323242 C17.4543635 180.66925254 18.45153738 179.02353979 19.44604492 177.3762207 C21.70858829 173.64982729 23.97272761 169.96297051 26.5234375 166.42578125 C38.00261755 150.18646339 41.50067413 129.59463336 40 110 C38.09246822 99.44862423 33.49503277 88.93161175 24.83984375 82.24609375 C17.8269469 77.49638229 10.76618297 74.99473798 2.19921875 76.48828125 C1.47347656 76.65714844 0.74773438 76.82601562 0 77 C-3.28820047 97.37029851 -4.8225981 117.0502813 -3.125 137.6875 C-3.04636719 138.71810547 -2.96773437 139.74871094 -2.88671875 140.81054688 C-2.13865399 150.24191725 -1.04626562 159.58360938 0 169 C-13.86 169 -27.72 169 -42 169 C-41.34 167.35 -40.68 165.7 -40 164 C-39.70171062 161.03699926 -39.70171062 161.03699926 -39.74603271 157.82717896 C-39.74039307 156.58512695 -39.73475342 155.34307495 -39.72894287 154.06338501 C-39.73283116 152.6947626 -39.73692748 151.32614076 -39.74121094 149.95751953 C-39.73849958 148.51002832 -39.73493782 147.06253849 -39.73059082 145.61505127 C-39.72148019 141.68934824 -39.72500603 137.76375045 -39.73134899 133.8380456 C-39.73641778 129.72535071 -39.73171491 125.61266473 -39.72857666 121.49996948 C-39.72493876 114.59159735 -39.72973064 107.68326798 -39.73925781 100.77490234 C-39.75013342 92.79681945 -39.74662259 84.81883885 -39.735605 76.84075844 C-39.72651682 69.98454513 -39.72525459 63.12836254 -39.73048234 56.27214515 C-39.73359473 52.18017328 -39.73403167 48.08824942 -39.72740936 43.99628067 C-39.72161456 40.14670549 -39.72567173 36.29726157 -39.73719788 32.4477005 C-39.73983344 31.03803856 -39.73909829 29.6283655 -39.73467255 28.21870804 C-39.66108283 18.41879092 -39.66108283 18.41879092 -42 9 C-41.01902344 8.97421875 -40.03804687 8.9484375 -39.02734375 8.921875 C-26.56115425 8.45324467 -14.94383678 6.33409059 -3.63671875 0.734375 C-2 0 -2 0 0 0 Z " fill="#0F2983" transform="translate(589,663)"/>
<path d="M0 0 C0.00219984 1.12810184 0.00219984 1.12810184 0.00444412 2.27899361 C0.04150296 20.58223866 0.10050539 38.88529271 0.18390274 57.18838692 C0.22370458 66.03965685 0.25609124 74.89083774 0.27099609 83.7421875 C0.2840067 91.45743526 0.31095616 99.17248716 0.35461307 106.88762462 C0.37724131 110.9724139 0.39290987 115.05696149 0.39188385 119.141819 C0.39113803 122.98821752 0.40905681 126.83408151 0.44116783 130.68034172 C0.44967257 132.09039688 0.4514128 133.50051195 0.44580269 134.91058159 C0.22877289 144.8041006 0.22877289 144.8041006 5 153 C5.66 153.99 6.32 154.98 7 156 C6.37738281 156.24492188 5.75476563 156.48984375 5.11328125 156.7421875 C-5.47553369 161.02497179 -15.71762965 166.03654551 -26 171 C-29.79013397 168.27365153 -31.8615711 165.98630275 -33.8125 161.75 C-34.44091797 160.41195312 -34.44091797 160.41195312 -35.08203125 159.046875 C-35.38496094 158.37140625 -35.68789063 157.6959375 -36 157 C-45.7343454 159.35508357 -54.2953522 163.87969715 -63.03515625 168.66015625 C-69.89788494 171.76149478 -77.63800004 171.8306554 -84.75 169.5 C-96.90004219 164.3256361 -104.52967751 154.98698299 -109.859375 143.1640625 C-112.99220189 134.47368653 -114.53239446 126.56320361 -114.4375 117.3125 C-114.42992676 116.26811768 -114.42235352 115.22373535 -114.41455078 114.14770508 C-113.99621633 94.31651459 -107.01386372 79.75059749 -93 66 C-84.20107346 57.58284506 -68.78874427 50.65927269 -57 48 C-53.86094508 48.51413823 -51.85630355 49.60777234 -49.328125 51.50390625 C-48.66425781 51.99697266 -48.00039063 52.49003906 -47.31640625 52.99804688 C-46.63449219 53.51431641 -45.95257813 54.03058594 -45.25 54.5625 C-44.55261719 55.08263672 -43.85523438 55.60277344 -43.13671875 56.13867188 C-41.42025444 57.42014181 -39.70955569 58.70932798 -38 60 C-37.85166592 53.94949087 -37.7427897 47.90003982 -37.67041016 41.84814453 C-37.64023894 39.78968878 -37.59929559 37.73136157 -37.54736328 35.67333984 C-37.47456235 32.71419592 -37.44054775 29.75675104 -37.4140625 26.796875 C-37.38309479 25.87694763 -37.35212708 24.95702026 -37.32022095 24.00921631 C-37.17773028 19.36300303 -37.17773028 19.36300303 -39.37567139 15.50549316 C-41.18688561 14.22471038 -41.18688561 14.22471038 -44 13 C-41.08580997 11.05720665 -39.32846857 10.4497636 -35.984375 9.66796875 C-34.48801514 9.30952881 -34.48801514 9.30952881 -32.96142578 8.94384766 C-31.90165527 8.69425293 -30.84188477 8.4446582 -29.75 8.1875 C-21.21415538 6.12668315 -12.90466835 3.82515049 -4.6328125 0.8828125 C-2 0 -2 0 0 0 Z M-72 66 C-82.96964337 78.84573932 -85.23610699 92.66789431 -84 109 C-81.64082678 121.95523122 -75.3512786 133.75210121 -65 142 C-59.0470346 145.65394939 -53.47543603 148.14881704 -46.4375 148.125 C-45.67308594 148.12757813 -44.90867187 148.13015625 -44.12109375 148.1328125 C-41.81001505 148.07907384 -41.81001505 148.07907384 -39 147 C-36.67159481 143.50739222 -36.7044869 141.97389364 -36.59838867 137.83544922 C-36.56303513 136.56337616 -36.52768158 135.2913031 -36.49125671 133.98068237 C-36.46495475 132.58871821 -36.44057395 131.19671661 -36.41796875 129.8046875 C-36.40607325 129.10155552 -36.39417774 128.39842354 -36.38192177 127.67398453 C-36.32263254 123.94840897 -36.27880856 120.22295709 -36.24487305 116.49707031 C-36.21378441 113.4249769 -36.15125641 110.35605049 -36.06030273 107.28515625 C-35.95023758 103.56596191 -35.89521454 99.84965874 -35.87847328 96.12891006 C-35.86328459 94.71814352 -35.82943658 93.30743957 -35.77583885 91.89760971 C-35.4519066 83.39748693 -35.4519066 83.39748693 -39.38356018 76.17817688 C-42.15864768 73.88576475 -44.95728348 71.91731602 -48 70 C-49.36384581 68.98906926 -50.72158048 67.9696922 -52.06640625 66.93359375 C-53.22900243 66.09769858 -54.39426597 65.2654975 -55.5625 64.4375 C-56.16384766 64.00115234 -56.76519531 63.56480469 -57.38476562 63.11523438 C-63.97636484 58.41327614 -66.40603686 60.92193581 -72 66 Z " fill="#0F2983" transform="translate(535,663)"/>
<path d="M0 0 C10.89488631 8.30965905 18.73180122 18.24102059 21 32 C22.20967105 44.37433997 18.53883608 55.25321985 11 65 C10.29875 66.010625 9.5975 67.02125 8.875 68.0625 C1.30957427 76.76758922 -10.72135865 82.3082038 -22 84 C-39.89575804 85.16269028 -54.7013082 82.91682225 -69.09765625 71.30859375 C-78.91336313 62.01063844 -84.05177653 50.47384872 -84.5 36.9375 C-84.04064232 23.98935542 -78.94707436 13.65193721 -69.609375 4.7109375 C-49.44602737 -12.2186657 -22.35943985 -13.89911126 0 0 Z " fill="#F9FAFC" transform="translate(267,405)"/>
<path d="M0 0 C0.73903564 0.58233398 1.47807129 1.16466797 2.23950195 1.76464844 C3.079729 2.41755859 3.91995605 3.07046875 4.78564453 3.74316406 C5.67405029 4.44634766 6.56245605 5.14953125 7.4777832 5.87402344 C9.34868185 7.32907555 11.22110744 8.78216624 13.0949707 10.23339844 C14.03953125 10.96623047 14.9840918 11.6990625 15.95727539 12.45410156 C20.27766531 15.76327302 24.68063409 18.95273256 29.1027832 22.12402344 C30.26716919 22.95981934 30.26716919 22.95981934 31.45507812 23.8125 C33.23178503 25.08537677 35.01074993 26.35510105 36.7902832 27.62402344 C35.3470736 31.95365224 32.05766132 33.12311701 28.2902832 35.31152344 C26.64158538 36.29327937 24.99454205 37.27781734 23.34887695 38.26464844 C22.00865479 39.06805664 22.00865479 39.06805664 20.64135742 39.88769531 C15.48972728 43.0250813 10.42492451 46.297758 5.3527832 49.56152344 C3.22400552 50.92891111 1.09510013 52.2961 -1.03393555 53.66308594 C-2.06824707 54.32727539 -3.10255859 54.99146484 -4.16821289 55.67578125 C-8.75438632 58.61346498 -13.3546324 61.52859781 -17.9597168 64.43652344 C-18.72727295 64.9217749 -19.4948291 65.40702637 -20.28564453 65.90698242 C-20.99793213 66.35630127 -21.71021973 66.80562012 -22.4440918 67.26855469 C-23.42345703 67.88657959 -23.42345703 67.88657959 -24.42260742 68.51708984 C-25.98360953 69.48397284 -27.5713109 70.40748036 -29.1628418 71.32324219 C-31.3434886 72.46237929 -31.3434886 72.46237929 -32.2097168 74.62402344 C-31.68635742 74.86378906 -31.16299805 75.10355469 -30.6237793 75.35058594 C-28.09952355 76.68215127 -25.75828937 78.2128693 -23.38720703 79.79785156 C-13.53970908 86.36018258 -4.60002312 90.55675337 7.40356445 90.94042969 C8.65073242 90.98232422 9.89790039 91.02421875 11.18286133 91.06738281 C12.47643555 91.10669922 13.77000977 91.14601563 15.1027832 91.18652344 C17.07214844 91.25129883 17.07214844 91.25129883 19.08129883 91.31738281 C22.31752608 91.4232957 25.55382778 91.52537229 28.7902832 91.62402344 C25.71281275 94.77058584 22.54872957 97.35572395 18.9777832 99.93652344 C14.14606853 103.48513322 9.93145758 107.30409333 5.7902832 111.62402344 C1.26036016 116.32633256 -2.69935133 119.75811118 -9.33081055 120.65917969 C-25.40922131 120.46283546 -41.51365811 110.91482554 -53.2097168 100.62402344 C-54.03084961 100.00011719 -54.85198242 99.37621094 -55.69799805 98.73339844 C-64.83320438 91.06152998 -71.34575935 79.40423452 -73.2097168 67.62402344 C-74.42450578 52.83630373 -69.62270205 39.29227959 -60.26049805 27.90527344 C-48.02682887 14.29677287 -33.18477909 6.80934881 -16.2097168 0.62402344 C-15.29834961 0.27210938 -14.38698242 -0.07980469 -13.44799805 -0.44238281 C-8.34904238 -2.32183259 -4.90457572 -3.05404804 0 0 Z M-36.2097168 17.62402344 C-42.28992354 23.70423018 -45.2075914 33.14569697 -45.5222168 41.62402344 C-45.4587561 49.17584599 -42.76710544 57.00599862 -39.2097168 63.62402344 C-35.3726481 62.96125181 -32.58814998 61.17655179 -29.30737305 59.13183594 C-28.74779404 58.78522919 -28.18821503 58.43862244 -27.61167908 58.08151245 C-25.82871598 56.97564695 -24.05041302 55.8625342 -22.2722168 54.74902344 C-21.08046795 54.00764197 -19.88841358 53.2667514 -18.69604492 52.52636719 C-16.49559561 51.15981531 -14.29739056 49.78990767 -12.10058594 48.41748047 C-9.48456791 46.79453743 -6.85419015 45.20006265 -4.2097168 43.62402344 C-7.52990663 36.19857425 -14.48332538 31.24838942 -20.7722168 26.37402344 C-21.30177979 25.96200684 -21.83134277 25.54999023 -22.37695312 25.12548828 C-28.73053589 19.96978933 -28.73053589 19.96978933 -36.2097168 17.62402344 Z " fill="#0F2983" transform="translate(746.209716796875,713.3759765625)"/>
<path d="M0 0 C10.09238728 5.02729404 16.68592289 11.65954087 21.0859375 22.0390625 C23.45646579 29.15064737 23.2829777 38.54524022 20.2109375 45.4140625 C15.43242474 53.5361805 7.78133214 59.58760103 -0.9140625 63.0390625 C-1.8215625 63.4515625 -2.7290625 63.8640625 -3.6640625 64.2890625 C-12.62973187 66.35806312 -20.87033518 65.52981338 -28.9140625 61.0390625 C-39.57347961 54.05947658 -45.41691233 46.37500151 -48.9140625 34.0390625 C-50.56244346 25.66082542 -47.4924242 19.00527664 -42.9140625 12.0390625 C-32.75563473 -0.42382342 -15.07127505 -5.99489379 0 0 Z " fill="#122B84" transform="translate(245.9140625,410.9609375)"/>
<path d="M0 0 C5.5410876 3.54750889 11.68432764 8.17594943 15 14 C14.505 15.485 14.505 15.485 14 17 C5.95576338 18.1359829 -2.07185572 18.25430806 -10.1809082 18.29516602 C-11.75619528 18.30663146 -13.3314452 18.32699631 -14.90649414 18.35668945 C-28.1648665 18.60537945 -44.54957153 18.38523328 -55 9 C-57.9791377 5.55537204 -58.60301973 2.37841193 -58.41015625 -2.07421875 C-57.67408362 -5.53025498 -55.75653404 -6.94726188 -53 -9 C-37.34976912 -18.26238154 -14.24168599 -8.10710397 0 0 Z " fill="#FEF9FA" transform="translate(213,765)"/>
<path d="M0 0 C5.61 0 11.22 0 17 0 C17 0.99 17 1.98 17 3 C17.37125 2.505 17.7425 2.01 18.125 1.5 C20.74694393 -0.59755514 22.73842472 -0.21743835 26 0 C26 0.99 26 1.98 26 3 C25.34 3 24.68 3 24 3 C24 6.3 24 9.6 24 13 C25.32 13 26.64 13 28 13 C27.505 6.565 27.505 6.565 27 0 C36.57 0 46.14 0 56 0 C56 0.99 56 1.98 56 3 C55.01 3 54.02 3 53 3 C53.14095064 4.6254308 53.28792087 6.25034051 53.4375 7.875 C53.51871094 8.77992188 53.59992187 9.68484375 53.68359375 10.6171875 C53.86989285 13.01110861 53.86989285 13.01110861 55 15 C52.37438891 15.08074203 49.75124324 15.1403623 47.125 15.1875 C46.00544922 15.22520508 46.00544922 15.22520508 44.86328125 15.26367188 C42.6953125 15.29296875 42.6953125 15.29296875 39 15 C37 12 37 12 37 9 C36.34 9 35.68 9 35 9 C35.66 7.35 36.32 5.7 37 4 C35.68 3.67 34.36 3.34 33 3 C33 6.3 33 9.6 33 13 C33.66 13 34.32 13 35 13 C35 13.66 35 14.32 35 15 C32.08308475 15.05401695 29.16717276 15.09368066 26.25 15.125 C25.425 15.14175781 24.6 15.15851562 23.75 15.17578125 C22.95078125 15.18222656 22.1515625 15.18867187 21.328125 15.1953125 C20.5949707 15.20578613 19.86181641 15.21625977 19.10644531 15.22705078 C16.70103924 14.96777544 15.08748506 14.19225925 13 13 C13 13.66 13 14.32 13 15 C6.84765625 15.09765625 6.84765625 15.09765625 5 15 C4 14 4 14 3.9375 11.4375 C3.958125 10.633125 3.97875 9.82875 4 9 C3.01 9 2.02 9 1 9 C1 8.34 1 7.68 1 7 C1.66 6.67 2.32 6.34 3 6 C3.33 5.01 3.66 4.02 4 3 C2.68 3 1.36 3 0 3 C0 2.01 0 1.02 0 0 Z M10 3 C10.33 3.99 10.66 4.98 11 6 C11.33 5.01 11.66 4.02 12 3 C11.34 3 10.68 3 10 3 Z M44 3 C44 3.66 44 4.32 44 5 C44.99 5 45.98 5 47 5 C47 4.34 47 3.68 47 3 C46.01 3 45.02 3 44 3 Z M17 5 C17 6.65 17 8.3 17 10 C17.66 10 18.32 10 19 10 C18.67 8.35 18.34 6.7 18 5 C17.67 5 17.34 5 17 5 Z M9 7 C10 9 10 9 10 9 Z M43 8 C43.66 9.98 44.32 11.96 45 14 C45.66 13.67 46.32 13.34 47 13 C47 11.35 47 9.7 47 8 C45.68 8 44.36 8 43 8 Z M10 10 C11 12 11 12 11 12 Z " fill="#FFFFFF" transform="translate(548,862)"/>
<path d="M0 0 C6.93 0 13.86 0 21 0 C21 0.99 21 1.98 21 3 C20.34 3 19.68 3 19 3 C19 6.3 19 9.6 19 13 C19.99 13 20.98 13 22 13 C22 8.71 22 4.42 22 0 C31 0 40 0 49 0 C49 0.99 49 1.98 49 3 C48.01 3 47.02 3 46 3 C46.14095064 4.6254308 46.28792087 6.25034051 46.4375 7.875 C46.51871094 8.77992188 46.59992187 9.68484375 46.68359375 10.6171875 C46.86989285 13.01110861 46.86989285 13.01110861 48 15 C41.19796625 15.37634203 36.24309927 14.77471079 30 12 C30 9.03 30 6.06 30 3 C29.34 3 28.68 3 28 3 C28.14095064 4.6254308 28.28792087 6.25034051 28.4375 7.875 C28.51871094 8.77992188 28.59992187 9.68484375 28.68359375 10.6171875 C28.86989285 13.01110861 28.86989285 13.01110861 30 15 C25.85418113 15.02886751 21.70838784 15.04675327 17.5625 15.0625 C16.37849609 15.07087891 15.19449219 15.07925781 13.97460938 15.08789062 C12.84990234 15.09111328 11.72519531 15.09433594 10.56640625 15.09765625 C9.00321655 15.10551147 9.00321655 15.10551147 7.40844727 15.11352539 C5 15 5 15 4 14 C3.95936168 12.33382885 3.957279 10.66611905 4 9 C3.01 9 2.02 9 1 9 C1 8.34 1 7.68 1 7 C1.66 6.67 2.32 6.34 3 6 C3.33 5.01 3.66 4.02 4 3 C2.68 3 1.36 3 0 3 C0 2.01 0 1.02 0 0 Z M10 3 C10 3.66 10 4.32 10 5 C11.32 5 12.64 5 14 5 C14 4.34 14 3.68 14 3 C12.68 3 11.36 3 10 3 Z M38 3 C36.515 6.465 36.515 6.465 35 10 C35.99 10.33 36.98 10.66 38 11 C38.66 10.67 39.32 10.34 40 10 C40 7.69 40 5.38 40 3 C39.34 3 38.68 3 38 3 Z M9 8 C9.66 9.65 10.32 11.3 11 13 C11.99 13 12.98 13 14 13 C14 11.35 14 9.7 14 8 C12.35 8 10.7 8 9 8 Z " fill="#FFFFFF" transform="translate(753,862)"/>
<path d="M0 0 C6.93287435 0.65404475 6.93287435 0.65404475 10 4 C12.60611077 4.72197162 12.60611077 4.72197162 15 5 C15 5.99 15 6.98 15 8 C13.68 8 12.36 8 11 8 C11 11.3 11 14.6 11 18 C11.66 18 12.32 18 13 18 C13 18.66 13 19.32 13 20 C11.52093108 20.02689216 10.04172517 20.04634621 8.5625 20.0625 C7.32693359 20.07990234 7.32693359 20.07990234 6.06640625 20.09765625 C4 20 4 20 3 19 C1.515 18.7525 1.515 18.7525 0 18.5 C-3 18 -3 18 -4 17 C-4.07179964 15.48071962 -4.08392007 13.95832518 -4.0625 12.4375 C-4.05347656 11.61121094 -4.04445313 10.78492188 -4.03515625 9.93359375 C-4.02355469 9.29550781 -4.01195312 8.65742187 -4 8 C-4.66 8 -5.32 8 -6 8 C-5.85904936 9.6254308 -5.71207913 11.25034051 -5.5625 12.875 C-5.48128906 13.77992188 -5.40007813 14.68484375 -5.31640625 15.6171875 C-5.13010715 18.01110861 -5.13010715 18.01110861 -4 20 C-9.28 20 -14.56 20 -20 20 C-20.33 18.02 -20.66 16.04 -21 14 C-21.66 14 -22.32 14 -23 14 C-22.34 12.02 -21.68 10.04 -21 8 C-22.32 8 -23.64 8 -25 8 C-25 7.01 -25 6.02 -25 5 C-21.37 5 -17.74 5 -14 5 C-13.92572162 8.34252724 -13.93453047 10.8035914 -15 14 C-14.61067144 16.14255793 -14.61067144 16.14255793 -14 18 C-13.34 18 -12.68 18 -12 18 C-12 13.71 -12 9.42 -12 5 C-7.38 5 -2.76 5 2 5 C2.33 4.34 2.66 3.68 3 3 C1.68 3 0.36 3 -1 3 C-0.67 2.01 -0.34 1.02 0 0 Z M3 8 C2.67 8.66 2.34 9.32 2 10 C2.66 10 3.32 10 4 10 C3.01 11.485 3.01 11.485 2 13 C2 13.99 2 14.98 2 16 C3.32 15.67 4.64 15.34 6 15 C6 12.69 6 10.38 6 8 C5.01 8 4.02 8 3 8 Z " fill="#FFFFFF" transform="translate(632,857)"/>
<path d="M0 0 C2.24579147 1.49534135 4.11167216 3.27182841 6.015625 5.17578125 C6.453125 8.48828125 6.453125 8.48828125 6.015625 12.17578125 C3.18020144 15.82132582 0.49986856 18.02864918 -3.984375 19.17578125 C-9.61897706 19.62297189 -13.13343544 19.37299141 -17.984375 16.17578125 C-20.421875 13.86328125 -20.421875 13.86328125 -21.984375 11.17578125 C-22.07044469 7.04443633 -21.28437859 5.53104866 -18.609375 2.36328125 C-13.71928519 -1.7117936 -5.93972997 -2.46709256 0 0 Z " fill="#F9F9FB" transform="translate(452.984375,617.82421875)"/>
<path d="M0 0 C2.26509573 1.46082261 3.83794038 2.67197451 5.0546875 5.10546875 C5.4296875 8.41796875 5.4296875 8.41796875 5.0546875 12.10546875 C2.51331591 15.2650118 0.90846091 16.82087761 -2.9453125 18.10546875 C-14.23421564 19.09915287 -14.23421564 19.09915287 -18.5703125 16.35546875 C-22.20151085 12.91538611 -22.20151085 12.91538611 -22.9453125 10.10546875 C-22.8640657 6.20562218 -22.4790732 4.63922945 -19.6953125 1.85546875 C-13.38881408 -2.15775752 -7.0662817 -3.24935444 0 0 Z " fill="#F8F9FB" transform="translate(500.9453125,617.89453125)"/>
<path d="M0 0 C2.94998615 1.53375774 3.68385288 2.27577931 5.625 5.1875 C6.11554578 8.94835101 5.93766471 10.67797233 3.9375 13.9375 C0.12168753 17.6501824 -3.04226992 18.3178945 -8.25 18.5625 C-13.39827092 18.46260818 -16.23371961 17.20718362 -20.375 14.1875 C-22.375 11.1875 -22.375 11.1875 -22.375 7.8125 C-21.04439451 2.98905511 -19.45946081 1.96493335 -15.375 -0.8125 C-9.83157546 -2.66030818 -5.2189663 -2.49065423 0 0 Z " fill="#F9FAFB" transform="translate(642.375,617.8125)"/>
<path d="M0 0 C3.31804319 1.33100211 5.48261708 3.48261708 8 6 C8.57285397 10.3373229 8.54765252 12.27516578 5.875 15.8125 C1.45687912 19.17411372 -2.00287268 20.24393472 -7.5 19.875 C-11.79968473 19.26593842 -14.62423953 17.79941112 -18 15 C-20 12 -20 12 -19.9375 8.5625 C-18.82990404 4.35363535 -17.61079978 3.28977547 -14 1 C-9.82321684 -1.08839158 -4.54814635 -0.44531459 0 0 Z " fill="#F9F9FB" transform="translate(593,617)"/>
<path d="M0 0 C3.51113043 1.34061344 6.92407635 2.77078544 9 6 C9.5 9.375 9.5 9.375 9 13 C6.16457644 16.64554457 3.48424356 18.85286793 -1 20 C-6.63460206 20.44719064 -10.14906044 20.19721016 -15 17 C-17.87998103 14.2677103 -18.95850217 12.99594787 -19.125 9 C-15.90586195 0.41563188 -8.17716374 -0.71597286 0 0 Z " fill="#F9FAFB" transform="translate(403,617)"/>
<path d="M0 0 C3.81340623 1.46723994 5.7242926 3.5864389 8 7 C7.92115614 11.33641221 7.71459315 13.30372975 4.5625 16.375 C0.77017306 18.77989025 -1.31480775 19.18344968 -5.8125 19.25 C-6.85019531 19.27578125 -7.88789062 19.3015625 -8.95703125 19.328125 C-12.39170479 18.95776226 -14.19765317 17.96655918 -17 16 C-17.598125 15.5875 -18.19625 15.175 -18.8125 14.75 C-20.88992972 11.68852462 -20.60670072 9.57953423 -20 6 C-15.45450748 -1.30468623 -7.78140029 -1.19021418 0 0 Z " fill="#FAFAFC" transform="translate(546,617)"/>
<path d="M0 0 C2.68093838 1.74294257 4.17237673 3.54567448 5.94921875 6.2109375 C5.87037489 10.54734971 5.6638119 12.51466725 2.51171875 15.5859375 C-1.28060819 17.99082775 -3.365589 18.39438718 -7.86328125 18.4609375 C-8.90097656 18.48671875 -9.93867188 18.5125 -11.0078125 18.5390625 C-15.27545873 18.07887985 -17.86478606 16.39693269 -20.86328125 13.3984375 C-22.50404066 10.37598595 -22.60484244 8.60456232 -22.05078125 5.2109375 C-16.67220883 -1.3305695 -8.04763008 -3.09642148 0 0 Z " fill="#FBFBFC" transform="translate(181.05078125,617.7890625)"/>
<path d="M0 0 C4.29 0 8.58 0 13 0 C13 0.99 13 1.98 13 3 C13.66 3 14.32 3 15 3 C15 2.01 15 1.02 15 0 C21.6 0 28.2 0 35 0 C35 0.99 35 1.98 35 3 C34.01 3 33.02 3 32 3 C32.14095064 4.6254308 32.28792087 6.25034051 32.4375 7.875 C32.51871094 8.77992188 32.59992187 9.68484375 32.68359375 10.6171875 C32.86989285 13.01110861 32.86989285 13.01110861 34 15 C31.37438891 15.08074203 28.75124324 15.1403623 26.125 15.1875 C25.00544922 15.22520508 25.00544922 15.22520508 23.86328125 15.26367188 C21.6953125 15.29296875 21.6953125 15.29296875 18 15 C16 12 16 12 16 9 C15.34 9 14.68 9 14 9 C13.67 9.99 13.34 10.98 13 12 C11.35 12 9.7 12 8 12 C8.33 12.33 8.66 12.66 9 13 C9 13.66 9 14.32 9 15 C3.65034965 15.35664336 3.65034965 15.35664336 1.0625 13.9375 C-0.63181173 10.84787273 0.26048315 8.32782582 1 5 C1.33 4.67 1.66 4.34 2 4 C1.34 3.67 0.68 3.34 0 3 C0 2.01 0 1.02 0 0 Z M23 3 C23 3.66 23 4.32 23 5 C23.99 5 24.98 5 26 5 C26 4.34 26 3.68 26 3 C25.01 3 24.02 3 23 3 Z M6 8 C7 11 7 11 7 11 Z M22 8 C22.66 9.98 23.32 11.96 24 14 C24.66 13.67 25.32 13.34 26 13 C26 11.35 26 9.7 26 8 C24.68 8 23.36 8 22 8 Z " fill="#FFFFFF" transform="translate(688,862)"/>
<path d="M0 0 C2.875 -0.1875 2.875 -0.1875 6 0 C6.66 0.99 7.32 1.98 8 3 C11.55672179 4.2188121 11.55672179 4.2188121 15 5 C15 5.99 15 6.98 15 8 C14.01 8.33 13.02 8.66 12 9 C12.33 9.33 12.66 9.66 13 10 C12.71269945 12.33944736 12.38063221 14.6739143 12 17 C10.35 17.33 8.7 17.66 7 18 C7 18.66 7 19.32 7 20 C4.03 20 1.06 20 -2 20 C-2 19.34 -2 18.68 -2 18 C-2.804375 17.855625 -3.60875 17.71125 -4.4375 17.5625 C-7 17 -7 17 -8 16 C-8.125 13 -8.125 13 -8 10 C-7.67 9.67 -7.34 9.34 -7 9 C-8.32 8.67 -9.64 8.34 -11 8 C-11 7.01 -11 6.02 -11 5 C-6.38 5 -1.76 5 3 5 C3 4.34 3 3.68 3 3 C1.68 3 0.36 3 -1 3 C-0.67 2.01 -0.34 1.02 0 0 Z M5 10 C5 11.65 5 13.3 5 15 C5.66 14.67 6.32 14.34 7 14 C6.34 12.68 5.68 11.36 5 10 Z M-2 11 C-2 12.32 -2 13.64 -2 15 C-1.34 15 -0.68 15 0 15 C0 13.68 0 12.36 0 11 C-0.66 11 -1.32 11 -2 11 Z " fill="#FFFFFF" transform="translate(735,857)"/>
<path d="M0 0 C5.28 0 10.56 0 16 0 C16 4.29 16 8.58 16 13 C16.33 13 16.66 13 17 13 C17 8.71 17 4.42 17 0 C20.3 0 23.6 0 27 0 C27 0.99 27 1.98 27 3 C25.68 3 24.36 3 23 3 C23.11458693 4.43836751 23.24209116 5.87570966 23.375 7.3125 C23.44460938 8.11300781 23.51421875 8.91351562 23.5859375 9.73828125 C23.89564426 12.27224441 23.89564426 12.27224441 26 15 C19.73 15 13.46 15 7 15 C7 14.01 7 13.02 7 12 C5.5459375 12.0309375 5.5459375 12.0309375 4.0625 12.0625 C1 12 1 12 0 11 C-0.1875 8.5625 -0.1875 8.5625 0 6 C0.66 5.34 1.32 4.68 2 4 C1.34 3.67 0.68 3.34 0 3 C0 2.01 0 1.02 0 0 Z " fill="#FFFFFF" transform="translate(518,862)"/>
<path d="M0 0 C1.98 0 3.96 0 6 0 C6.3403125 0.9590625 6.3403125 0.9590625 6.6875 1.9375 C7.85250896 4.27193661 7.85250896 4.27193661 10.625 4.75 C11.40875 4.8325 12.1925 4.915 13 5 C13 5.99 13 6.98 13 8 C12.34 8 11.68 8 11 8 C11.11458693 9.43836751 11.24209116 10.87570966 11.375 12.3125 C11.44460938 13.11300781 11.51421875 13.91351562 11.5859375 14.73828125 C11.89564426 17.27224441 11.89564426 17.27224441 14 20 C10.7 20 7.4 20 4 20 C4 19.34 4 18.68 4 18 C3.67 18.33 3.34 18.66 3 19 C1.00390625 19.16796875 1.00390625 19.16796875 -1.4375 19.1875 C-2.64212891 19.20876953 -2.64212891 19.20876953 -3.87109375 19.23046875 C-6 19 -6 19 -8 17 C-7.75 14.4375 -7.75 14.4375 -7 12 C-6.34 11.67 -5.68 11.34 -5 11 C-4.67 10.01 -4.34 9.02 -4 8 C-4.99 8 -5.98 8 -7 8 C-7 7.01 -7 6.02 -7 5 C-3.7 4.67 -0.4 4.34 3 4 C1.68 3.34 0.36 2.68 -1 2 C-0.67 1.34 -0.34 0.68 0 0 Z M-2 11 C-2.33 12.65 -2.66 14.3 -3 16 C-2.34 16 -1.68 16 -1 16 C-1 14.35 -1 12.7 -1 11 C-1.33 11 -1.66 11 -2 11 Z M5 11 C6 13 6 13 6 13 Z " fill="#FFFFFF" transform="translate(504,857)"/>
<path d="M0 0 C6.27 0 12.54 0 19 0 C19 4.29 19 8.58 19 13 C19.99 13.33 20.98 13.66 22 14 C22 14.33 22 14.66 22 15 C16.39 15 10.78 15 5 15 C4.67 13.02 4.34 11.04 4 9 C3.01 9 2.02 9 1 9 C1 8.34 1 7.68 1 7 C1.66 6.67 2.32 6.34 3 6 C3.33 5.01 3.66 4.02 4 3 C2.68 3 1.36 3 0 3 C0 2.01 0 1.02 0 0 Z M10 3 C10.33 3.66 10.66 4.32 11 5 C11.99 5 12.98 5 14 5 C14 4.34 14 3.68 14 3 C12.68 3 11.36 3 10 3 Z M9 8 C9.99 9.98 10.98 11.96 12 14 C12.66 13.67 13.32 13.34 14 13 C14 11.35 14 9.7 14 8 C12.35 8 10.7 8 9 8 Z " fill="#FFFFFF" transform="translate(475,862)"/>
<path d="M0 0 C1.2065625 0.0309375 1.2065625 0.0309375 2.4375 0.0625 C2.7675 1.0525 3.0975 2.0425 3.4375 3.0625 C2.4475 3.0625 1.4575 3.0625 0.4375 3.0625 C0.4375 4.0525 0.4375 5.0425 0.4375 6.0625 C1.4275 6.0625 2.4175 6.0625 3.4375 6.0625 C3.251875 7.196875 3.06625 8.33125 2.875 9.5 C2.6584375 11.2634375 2.6584375 11.2634375 2.4375 13.0625 C2.7675 13.3925 3.0975 13.7225 3.4375 14.0625 C3.86157099 18.72728085 3.13069525 21.24714006 0.4375 25.0625 C-1.5 24.75 -1.5 24.75 -3.5625 24.0625 C-3.8925 23.0725 -4.2225 22.0825 -4.5625 21.0625 C-6.57758358 20.32926204 -6.57758358 20.32926204 -8.5625 20.0625 C-8.2325 18.7425 -7.9025 17.4225 -7.5625 16.0625 C-5.9125 15.7325 -4.2625 15.4025 -2.5625 15.0625 C-4.2125 15.0625 -5.8625 15.0625 -7.5625 15.0625 C-8.26324844 11.909132 -8.5625 9.33525026 -8.5625 6.0625 C-7.2425 5.7325 -5.9225 5.4025 -4.5625 5.0625 C-4.418125 4.423125 -4.27375 3.78375 -4.125 3.125 C-3.30589691 0.12162199 -3.19313651 0.07788138 0 0 Z " fill="#FFFFFF" transform="translate(683.5625,855.9375)"/>
<path d="M0 0 C2.31 0 4.62 0 7 0 C7 1.65 7 3.3 7 5 C7.66 5 8.32 5 9 5 C8.67 3.35 8.34 1.7 8 0 C10.64 0 13.28 0 16 0 C15.98839844 0.91523437 15.97679687 1.83046875 15.96484375 2.7734375 C15.95582031 3.96195313 15.94679688 5.15046875 15.9375 6.375 C15.92589844 7.55835938 15.91429687 8.74171875 15.90234375 9.9609375 C15.78533407 12.91921521 15.78533407 12.91921521 17 15 C15.41705218 15.05437607 13.83355744 15.09296271 12.25 15.125 C11.36828125 15.14820313 10.4865625 15.17140625 9.578125 15.1953125 C5.72978589 14.90377166 3.70206912 13.70206912 1 11 C1.03287583 8.27130593 1.56397771 5.7033382 2 3 C1.34 3 0.68 3 0 3 C0 2.01 0 1.02 0 0 Z M8 7 C9 10 9 10 9 10 Z " fill="#FFFFFF" transform="translate(438,862)"/>
<path d="M0 0 C4.95 0 9.9 0 15 0 C14.67 2.31 14.34 4.62 14 7 C14.20625 7.886875 14.4125 8.77375 14.625 9.6875 C15 12 15 12 13.5625 14.3125 C13.046875 14.869375 12.53125 15.42625 12 16 C4.56651163 15.39069767 4.56651163 15.39069767 2.1875 13.75 C1 12 1 12 1.14453125 9.73828125 C1.36496094 8.93777344 1.58539063 8.13726563 1.8125 7.3125 C2.13154297 6.10013672 2.13154297 6.10013672 2.45703125 4.86328125 C2.63621094 4.24839844 2.81539063 3.63351562 3 3 C2.01 3 1.02 3 0 3 C0 2.01 0 1.02 0 0 Z M8 9 C8 10.32 8 11.64 8 13 C8.66 12.67 9.32 12.34 10 12 C10 11.01 10 10.02 10 9 C9.34 9 8.68 9 8 9 Z " fill="#FFFFFF" transform="translate(407,862)"/>
<path d="M0 0 C5.28 0 10.56 0 16 0 C16 0.99 16 1.98 16 3 C15.34 3 14.68 3 14 3 C14 4.32 14 5.64 14 7 C12.35 7 10.7 7 9 7 C9 8.65 9 10.3 9 12 C9.33 11.01 9.66 10.02 10 9 C11.65 9 13.3 9 15 9 C15.33 10.32 15.66 11.64 16 13 C12.18410122 15.54393252 9.4700353 15.57737956 5 15 C3 13.9375 3 13.9375 2 12 C1.75 8.375 1.75 8.375 2 5 C2.33 4.67 2.66 4.34 3 4 C2.01 3.67 1.02 3.34 0 3 C0 2.01 0 1.02 0 0 Z " fill="#FFFFFF" transform="translate(650,862)"/>
<path d="M0 0 C3.96 0 7.92 0 12 0 C12 0.99 12 1.98 12 3 C11.01 3 10.02 3 9 3 C8.91840426 7.16138263 9.01751476 10.9472484 10 15 C7.125 15.1875 7.125 15.1875 4 15 C2 12 2 12 2 9 C1.34 9 0.68 9 0 9 C0.66 7.35 1.32 5.7 2 4 C1.34 3.67 0.68 3.34 0 3 C0 2.01 0 1.02 0 0 Z " fill="#FFFFFF" transform="translate(455,862)"/>
<path d="M0 0 C3.96 0 7.92 0 12 0 C12 0.99 12 1.98 12 3 C11.01 3 10.02 3 9 3 C9.33 6.96 9.66 10.92 10 15 C8.02 15 6.04 15 4 15 C3.71125 14.195625 3.4225 13.39125 3.125 12.5625 C2.26737432 9.8673532 2.26737432 9.8673532 0 9 C0 8.34 0 7.68 0 7 C0.66 6.67 1.32 6.34 2 6 C2 5.34 2 4.68 2 4 C1.34 3.67 0.68 3.34 0 3 C0 2.01 0 1.02 0 0 Z " fill="#FFFFFF" transform="translate(423,862)"/>
<path d="M0 0 C2.31 0 4.62 0 7 0 C6.98839844 0.91523437 6.97679687 1.83046875 6.96484375 2.7734375 C6.95582031 3.96195313 6.94679688 5.15046875 6.9375 6.375 C6.92589844 7.55835938 6.91429687 8.74171875 6.90234375 9.9609375 C6.78533407 12.91921521 6.78533407 12.91921521 8 15 C4.7 15 1.4 15 -2 15 C-1.34 14.01 -0.68 13.02 0 12 C0.24219315 9.02550392 0.24219315 9.02550392 0.125 5.8125 C0.10695313 4.72582031 0.08890625 3.63914062 0.0703125 2.51953125 C0.04710937 1.68808594 0.02390625 0.85664062 0 0 Z " fill="#FFFFFF" transform="translate(667,862)"/>
<path d="M0 0 C0.66 0.33 1.32 0.66 2 1 C-1.96 4.96 -5.92 8.92 -10 13 C-10.66 12.67 -11.32 12.34 -12 12 C-10.75479583 10.55834372 -9.50362077 9.12184348 -8.25 7.6875 C-7.55390625 6.88699219 -6.8578125 6.08648437 -6.140625 5.26171875 C-4.20854665 3.22034399 -2.30056874 1.60107149 0 0 Z " fill="#D9DDEB" transform="translate(202,406)"/>
<path d="M0 0 C0.66 0.33 1.32 0.66 2 1 C1.030625 1.845625 0.06125 2.69125 -0.9375 3.5625 C-4.20125576 6.78017921 -4.81523971 9.38099287 -5 14 C-5.33 14 -5.66 14 -6 14 C-6.61514196 6.74132492 -6.61514196 6.74132492 -3.5625 3.0625 C-2.716875 2.381875 -1.87125 1.70125 -1 1 C-0.67 0.67 -0.34 0.34 0 0 Z " fill="#F9CCD1" transform="translate(161,755)"/>
</svg>
